<svg xmlns="http://www.w3.org/2000/svg" viewBox="0 0 68.12 64.87"><defs><style>.cls-1{fill:#fff;stroke-width:2px;}.cls-1,.cls-2,.cls-3{stroke:#143156;}.cls-2,.cls-3{fill:#231f20;stroke-miterlimit:10;}.cls-3{font-size:17.16px;font-family:BloggerSans-Medium, Blogger Sans;}</style></defs><title>after sale</title><g id="Layer_2" data-name="Layer 2"><g id="Layer_1-2" data-name="Layer 1"><path class="cls-1" d="M25.67,45.19a17.19,17.19,0,0,0,2.38,8.71c.89,1.52-.79,2.71-3.11,8.31,4.46-.94,9.31-1.78,11-.88a22.4,22.4,0,0,0,10.43,2.54c11.45,0,20.73-8.37,20.73-18.68S57.84,26.51,46.39,26.51,25.67,34.87,25.67,45.19Z"/><path class="cls-1" d="M42.45,19.68a17.1,17.1,0,0,1-2.39,8.71c-.89,1.52.79,2.71,3.11,8.31-4.45-.94-9.31-1.78-11-.88a22.39,22.39,0,0,1-10.43,2.53C10.28,38.35,1,30,1,19.68S10.28,1,21.73,1,42.45,9.36,42.45,19.68Z"/><circle class="cls-2" cx="15.13" cy="19.73" r="1.75"/><circle class="cls-2" cx="21.03" cy="19.73" r="1.75"/><circle class="cls-2" cx="26.84" cy="19.73" r="1.75"/><text class="cls-3" transform="translate(43.74 52.16)">?</text></g></g></svg>