<svg xmlns="http://www.w3.org/2000/svg" viewBox="0 0 38.13 69.36"><defs><style>.cls-1{fill:#fff;stroke:#143156;stroke-width:2px;}</style></defs><title>garden storage</title><g id="Layer_2" data-name="Layer 2"><g id="Layer_1-2" data-name="Layer 1"><line class="cls-1" x1="19.04" y1="69.36" x2="19.04" y2="11.72"/><path class="cls-1" d="M12.63,13.26c0-3.51,2.35-8.76,6.41-12,4,3.22,6.42,8.47,6.42,12s-2.72,5.31-6.42,8.9C16,19.21,12.63,16.76,12.63,13.26Z"/><path class="cls-1" d="M24,23.41c2.48-2.48,7.85-4.54,13-3.93.53,5.07-1.45,10.52-3.93,13s-5.68,1.84-10.83,1.76C22.22,30,21.57,25.89,24,23.41Z"/><path class="cls-1" d="M5,32.42c-2.48-2.48-4.54-7.86-3.93-13,5.07-.52,10.52,1.46,13,3.94S16,29,15.87,34.18C11.64,34.24,7.51,34.89,5,32.42Z"/><path class="cls-1" d="M24,41.17c2.48-2.48,7.85-4.53,13-3.93.53,5.07-1.45,10.53-3.93,13S27.43,52.08,22.28,52C22.22,47.78,21.57,43.65,24,41.17Z"/><path class="cls-1" d="M5,50.18C2.56,47.7.5,42.33,1.11,37.18c5.07-.53,10.52,1.45,13,3.93S16,46.79,15.87,51.94C11.64,52,7.51,52.66,5,50.18Z"/></g></g></svg>