<svg xmlns="http://www.w3.org/2000/svg" viewBox="0 0 76.97 76.97"><defs><style>.cls-1{fill:#143156;stroke:#fff;stroke-miterlimit:10;}.cls-2{fill:#fff;}</style></defs><title>insta</title><g id="Layer_2" data-name="Layer 2"><g id="Layer_1-2" data-name="Layer 1"><circle class="cls-1" cx="38.49" cy="38.49" r="37.99"/><g id="_34hbmL.tif" data-name="34hbmL.tif"><path class="cls-2" d="M38.53,15.24c3.12.06,6.23.09,9.35.17a15.25,15.25,0,0,1,7.69,2,11.54,11.54,0,0,1,5.57,8.18A41.81,41.81,0,0,1,61.67,32c.07,4.61,0,9.23,0,13.84A22.67,22.67,0,0,1,60.75,53a11.68,11.68,0,0,1-9.37,8.14,37.24,37.24,0,0,1-6.42.52c-4.6.07-9.19,0-13.79,0a22.38,22.38,0,0,1-7.18-.9,11.67,11.67,0,0,1-8.16-9.35A37.24,37.24,0,0,1,15.31,45c-.07-4.61-.05-9.23,0-13.84A22.67,22.67,0,0,1,16.22,24a11.7,11.7,0,0,1,9.37-8.14A43,43,0,0,1,32,15.33c2.17-.09,4.34,0,6.52,0ZM57.6,38.14h-.1c0-1.84,0-3.67,0-5.5s-.11-3.52-.29-5.28A7.8,7.8,0,0,0,50.6,20a36.84,36.84,0,0,0-6.22-.49c-3.93-.07-7.87-.06-11.8,0a41.31,41.31,0,0,0-5.88.41,7.58,7.58,0,0,0-6.58,5.77A13.72,13.72,0,0,0,19.63,29c-.1,4.2-.17,8.4-.15,12.61,0,2.67.07,5.36.3,8a7.79,7.79,0,0,0,6.71,7.43,38.52,38.52,0,0,0,6.18.45c3.88.06,7.76.05,11.65,0,1.78,0,3.56-.11,5.33-.29a8.42,8.42,0,0,0,4.53-1.76,8.6,8.6,0,0,0,3.12-6.7C57.47,45.22,57.5,41.68,57.6,38.14Z"/><path class="cls-2" d="M50.41,38.52A11.93,11.93,0,1,1,38.6,26.59,11.88,11.88,0,0,1,50.41,38.52ZM38.48,46.25a7.74,7.74,0,1,0-7.73-7.74A7.78,7.78,0,0,0,38.48,46.25Z"/><path class="cls-2" d="M53.67,26.1a2.8,2.8,0,0,1-2.79,2.82,2.83,2.83,0,0,1-2.81-2.82,2.8,2.8,0,0,1,2.79-2.77A2.75,2.75,0,0,1,53.67,26.1Z"/></g></g></g></svg>