<svg xmlns="http://www.w3.org/2000/svg" viewBox="0 0 76.71 61.24"><defs><style>.cls-1{fill:#fff;}.cls-1,.cls-2{stroke:#143156;stroke-width:2px;}.cls-2{fill:none;}</style></defs><title>kitchenware</title><g id="Layer_2" data-name="Layer 2"><g id="Layer_1-2" data-name="Layer 1"><path class="cls-1" d="M18.09,5.06H58.62a5.14,5.14,0,0,1,5.14,5.14V57a3.37,3.37,0,0,1-3.47,3.25H16.42A3.36,3.36,0,0,1,13,57V10.2A5.14,5.14,0,0,1,18.09,5.06Z"/><line class="cls-2" x1="7.92" y1="11.76" x2="70.42" y2="11.76"/><path class="cls-2" d="M30.94,5.8V3a2,2,0,0,1,2-2H45.43a2,2,0,0,1,2,2V5.8"/><polyline class="cls-2" points="12.96 23.96 7.92 17.71 6.04 17.71"/><path class="cls-2" d="M1,17.71A2.32,2.32,0,0,0,3.29,20H6.37V15.4H3.29A2.31,2.31,0,0,0,1,17.71Z"/><polyline class="cls-2" points="63.76 23.96 68.79 17.71 70.67 17.71"/><path class="cls-2" d="M75.71,17.71A2.32,2.32,0,0,1,73.43,20H70.34V15.4h3.09A2.31,2.31,0,0,1,75.71,17.71Z"/></g></g></svg>