<svg xmlns="http://www.w3.org/2000/svg" viewBox="0 0 80.2 72.25"><defs><style>.cls-1,.cls-2{fill:#fff;stroke:#143156;}.cls-1{stroke-width:2px;}</style></defs><title>laundry</title><g id="Layer_2" data-name="Layer 2"><g id="Layer_1-2" data-name="Layer 1"><path class="cls-1" d="M57.63,27.46a12.66,12.66,0,0,0-5.08,1.07,12.63,12.63,0,0,0-25-.76A12.63,12.63,0,1,0,34.7,41.2a12.52,12.52,0,0,0,10.35.1A12.64,12.64,0,1,0,57.63,27.46Z"/><path class="cls-1" d="M75.7,33l-5,30.54c-1.25,4.58-3.45,7.7-7.7,7.7H17.21c-4.26,0-6.46-3.12-7.71-7.7L4.5,33"/><line class="cls-1" y1="33.75" x2="80.2" y2="33.75"/><path class="cls-1" d="M39.18,20.7s-6.51.08-8.22,8.42"/><circle class="cls-1" cx="20.81" cy="17.16" r="3.54"/><circle class="cls-1" cx="31.81" cy="5.89" r="4.89"/><path class="cls-2" d="M32.75,3.46s-2.86-.66-3.36,2.17"/><path class="cls-2" d="M21.85,15.82a2,2,0,0,0-2.48,1.6"/></g></g></svg>