<svg xmlns="http://www.w3.org/2000/svg" viewBox="0 0 76.97 76.97"><defs><style>.cls-1{fill:#143156;stroke:#fff;stroke-miterlimit:10;}.cls-2{fill:#fff;}</style></defs><title>linkdin</title><g id="Layer_2" data-name="Layer 2"><g id="Layer_1-2" data-name="Layer 1"><circle class="cls-1" cx="38.49" cy="38.49" r="37.99" transform="translate(-7.85 67.05) rotate(-76.65)"/><path class="cls-2" d="M60.32,41.52V56.64H51.55V42.53c0-3.54-1.26-6-4.44-6a4.78,4.78,0,0,0-4.49,3.21,6,6,0,0,0-.29,2.13V56.64H33.56s.12-23.89,0-26.37h8.77V34a.47.47,0,0,0-.06.09h.06V34a8.7,8.7,0,0,1,7.9-4.36c5.76,0,10.09,3.77,10.09,11.87Zm-35.93-24c-3,0-5,2-5,4.55a4.54,4.54,0,0,0,4.84,4.56h.06c3.06,0,5-2,5-4.56a4.55,4.55,0,0,0-4.9-4.55ZM20,56.64h8.76V30.27H20Z"/></g></g></svg>