<svg xmlns="http://www.w3.org/2000/svg" viewBox="0 0 64.31 64.99"><defs><style>.cls-1{fill:#fff;stroke:#143156;stroke-width:2px;}.cls-2{font-size:10.78px;font-family:BloggerSans-Medium, Blogger Sans;}.cls-2,.cls-3{fill:#143156;}</style></defs><title>pdf</title><g id="Layer_2" data-name="Layer 2"><g id="Layer_1-2" data-name="Layer 1"><path class="cls-1" d="M54.05,55.56H10.26V4.24A3.36,3.36,0,0,1,13.72,1H50.58a3.36,3.36,0,0,1,3.47,3.24Z"/><rect class="cls-1" x="1" y="50.02" width="62.31" height="13.96" rx="3.18" ry="3.18"/><text class="cls-2" transform="translate(23.44 60.74)">PDF</text><path class="cls-3" d="M32.1,11.46c.13,0,.28.1.32.18.39.65-.15,2.62-.61,4.06-.6-2.16-.48-3.48-.13-4a.52.52,0,0,1,.42-.24M32,20.93A51.47,51.47,0,0,0,38.23,30c-2.24.4-7.88,1.79-10.63,2.51C29.45,29.4,31.15,24,32,20.93m9.62,10.94c3.9,1.14,4.61,2.07,4.71,2.22a1.35,1.35,0,0,1-.11.32c-.12.19-.19.19-.32.19-1.13,0-3.08-1.52-4.28-2.73M24,35.35c-.61,1-1.53,2.47-2.8,4.31C20.5,40.74,19.93,41,19.72,41a.94.94,0,0,1-.56-.32c-.37-2.3,1.45-3.73,4.88-5.36M32.19,9.46c-2.2,0-4.17,2.37-1.55,9,0,0-3.08,11.67-5.67,14.25-2.67,1.33-9.08,3.42-7.66,8.92A3.15,3.15,0,0,0,19.72,43c.93,0,2-.57,3.17-2.24,2.42-3.5,3.58-5.66,3.83-6,1.59-.5,11.59-2.91,12.34-2.91.75,1.19,4.27,4.72,6.87,4.72a2.33,2.33,0,0,0,2.13-1.31c.48-1.25,1.5-3.5-7.34-5.75-2.41-1.66-6.91-9.25-7.7-11.08.87-2.92,3.29-8.25-.71-9Z"/></g></g></svg>