<svg xmlns="http://www.w3.org/2000/svg" viewBox="0 0 67.34 71.34"><defs><style>.cls-1{fill:#fff;stroke:#143156;stroke-width:2px;}</style></defs><title>pet</title><g id="Layer_2" data-name="Layer 2"><g id="Layer_1-2" data-name="Layer 1"><ellipse class="cls-1" cx="8.14" cy="45.72" rx="4.68" ry="6.11" transform="translate(-30.24 19.58) rotate(-45.64)"/><ellipse class="cls-1" cx="6.55" cy="59.34" rx="4.68" ry="5.81" transform="translate(-48.06 35.22) rotate(-59.87)"/><path class="cls-1" d="M29.75,63.92c4.58-1.26,6.63-2.94,6.86-5.47s-3-4.11-4.77-4.56-4.55-1.23-6.21-3c-3.49-4.51-7.27-2.73-8-2.32s-4.14,2.77-2,8.06c.71,2.33,0,5.15-.52,6.88s-.77,5.35,1.53,6.42,4.79.15,8.18-3.17A26.11,26.11,0,0,1,29.75,63.92Z"/><ellipse class="cls-1" cx="19.41" cy="38.75" rx="4.68" ry="6.11" transform="translate(-8.85 5.9) rotate(-14.1)"/><ellipse class="cls-1" cx="31.54" cy="44.66" rx="5.81" ry="4.68" transform="translate(-13.19 76.1) rotate(-89.87)"/><ellipse class="cls-1" cx="44.73" cy="7.1" rx="6.11" ry="4.68" transform="translate(35.29 51.4) rotate(-87)"/><ellipse class="cls-1" cx="33.46" cy="14.91" rx="4.68" ry="5.81" transform="translate(-2.26 6.8) rotate(-11.22)"/><path class="cls-1" d="M45.35,35.35c4,2.6,6.59,3,8.64,1.53s1.08-5,.26-6.59-2.08-4.23-1.83-6.66c1.08-5.6-2.75-7.26-3.54-7.53s-4.81-1.27-7.37,3.82C40.23,22,37.63,23.31,36,24.09S31.48,27,32.19,29.47s3.06,3.7,7.79,4.05A26.38,26.38,0,0,1,45.35,35.35Z"/><ellipse class="cls-1" cx="57.41" cy="10.96" rx="6.11" ry="4.68" transform="translate(15.83 52.03) rotate(-55.45)"/><ellipse class="cls-1" cx="60.99" cy="23.97" rx="5.81" ry="4.68" transform="translate(-0.68 46.13) rotate(-41.22)"/></g></g></svg>