<svg xmlns="http://www.w3.org/2000/svg" viewBox="0 0 47.56 65.27"><defs><style>.cls-1{fill:none;}.cls-1,.cls-2{stroke:#143156;stroke-width:2px;fill-rule:evenodd;}.cls-2{fill:#fff;}</style></defs><title>phone</title><g id="Layer_2" data-name="Layer 2"><g id="Layer_1-2" data-name="Layer 1"><path class="cls-1" d="M32.83,23.66a11.36,11.36,0,0,1,1.41,1.63,11.52,11.52,0,0,1,1.06,1.87,12.14,12.14,0,0,1,.69,2,10.71,10.71,0,0,1,.28,2.12"/><path class="cls-1" d="M34.67,18.51A16.39,16.39,0,0,1,40,25.05a15.85,15.85,0,0,1,1.22,4.08,16.71,16.71,0,0,1,.15,4.24"/><path class="cls-1" d="M36.5,13.55a21.17,21.17,0,0,1,4.77,4.08A21.47,21.47,0,0,1,44.66,23h0a21.92,21.92,0,0,1,1.7,6V29a21.32,21.32,0,0,1-.11,6.28"/><path class="cls-2" d="M35.37,62.84l-.06,0a12.31,12.31,0,0,1-7.53,1.2,14.81,14.81,0,0,1-9.38-6.89c-1.28-2-2.42-4.06-3.52-6.15C12,45.68,9.47,40.16,7.07,34.59A119.45,119.45,0,0,1,1.55,19.84c-1.8-6.49.88-13.69,7.21-16.52l.05,0,4.91-2.17a1.45,1.45,0,0,1,2,.91c1.33,4.4,3.1,11.27,4.35,15.57a1.46,1.46,0,0,1-.81,1.74l-2.45,1.1C7.69,24.05,20.84,48,28,45.41l2.42-1.09a1.46,1.46,0,0,1,1.84.55c1.71,2.73,6.25,9.94,8.65,13.6a1.45,1.45,0,0,1-.62,2.12l-5,2.29"/></g></g></svg>