<svg xmlns="http://www.w3.org/2000/svg" viewBox="0 0 76.97 76.97"><defs><style>.cls-1{fill:#143156;stroke:#fff;stroke-miterlimit:10;}.cls-2{fill:#fff;}</style></defs><title>pinterest</title><g id="Layer_2" data-name="Layer 2"><g id="Layer_1-2" data-name="Layer 1"><circle class="cls-1" cx="38.49" cy="38.49" r="37.99"/><path class="cls-2" d="M41.45,48.78c-2.78-.22-3.94-1.6-6.12-2.92-1.2,6.29-2.67,12.32-7,15.47-1.34-9.51,2-16.65,3.5-24.22-2.61-4.41.32-13.28,5.84-11.09,6.79,2.68-5.88,16.38,2.63,18.09,8.88,1.79,12.51-15.42,7-21-8-8.08-23.17-.19-21.3,11.38.45,2.83,3.37,3.68,1.16,7.59-5.09-1.13-6.61-5.15-6.42-10.51.32-8.77,7.88-14.91,15.47-15.76,9.6-1.07,18.6,3.52,19.85,12.55,1.4,10.19-4.34,21.22-14.6,20.43Z"/></g></g></svg>