<svg xmlns="http://www.w3.org/2000/svg" viewBox="0 0 49.44 64.64"><defs><style>.cls-1{fill:#fff;stroke-width:2px;}.cls-1,.cls-2{stroke:#143156;}.cls-2{fill:#231f20;stroke-miterlimit:10;}</style></defs><title>starplay</title><g id="Layer_2" data-name="Layer 2"><g id="Layer_1-2" data-name="Layer 1"><path class="cls-1" d="M5.79,46.42a4.8,4.8,0,0,1-3.63-7.93l10.1-8,4.17,2-1.68,9.13S7.25,46.42,5.79,46.42Z"/><path class="cls-1" d="M43.65,46.42a4.8,4.8,0,0,0,3.63-7.93l-10.1-8-4.17,2,1.68,9.13S42.19,46.42,43.65,46.42Z"/><path class="cls-1" d="M34.62,31.76,25,32.6l-9.67-.84S10.57,42.65,11.4,50.81c5.34,3.46,5.85,6.44,5.85,6.44a13.49,13.49,0,0,0,7.51,2.26,12.16,12.16,0,0,0,7-2.26s1.36-3,6.7-6.44C39.35,42.65,34.62,31.76,34.62,31.76Z"/><circle class="cls-1" cx="8.68" cy="9.27" r="5.23"/><circle class="cls-1" cx="41.12" cy="9.27" r="5.23"/><circle class="cls-1" cx="24.96" cy="17.9" r="16.9"/><ellipse class="cls-1" cx="24.96" cy="24.65" rx="7.71" ry="5.82"/><ellipse class="cls-1" cx="24.96" cy="21.34" rx="3.32" ry="2.51"/><circle class="cls-2" cx="31.27" cy="11.71" r="1.4"/><circle class="cls-2" cx="19.14" cy="11.71" r="1.4"/><circle class="cls-1" cx="39.05" cy="56.34" r="7.3"/><circle class="cls-1" cx="10.59" cy="56.34" r="7.3"/></g></g></svg>